<?xml version="1.0" standalone="no"?>
<!DOCTYPE svg PUBLIC "-//W3C//DTD SVG 20010904//EN"
 "http://www.w3.org/TR/2001/REC-SVG-20010904/DTD/svg10.dtd">
<svg version="1.0" xmlns="http://www.w3.org/2000/svg"
 width="512.000000pt" height="512.000000pt" viewBox="0 0 512.000000 512.000000"
 preserveAspectRatio="xMidYMid meet">
<metadata>
Created by potrace 1.14, written by Peter Selinger 2001-2017
</metadata>
<g transform="translate(0.000000,512.000000) scale(0.100000,-0.100000)"
fill="#000000" stroke="none">
<path d="M1493 4870 c-13 -5 -32 -24 -43 -42 -18 -29 -20 -45 -15 -128 7 -137
18 -256 35 -365 5 -33 11 -77 15 -99 3 -21 7 -41 9 -45 2 -3 7 -22 10 -41 3
-19 15 -66 26 -105 11 -38 22 -78 25 -88 32 -133 159 -368 255 -467 22 -23 38
-45 35 -48 -3 -3 -5 -3 -5 0 0 18 -179 -38 -230 -73 -14 -9 -34 -15 -45 -13
-220 33 -376 80 -539 164 -67 34 -130 60 -147 60 -34 0 -88 -46 -90 -77 -6
-72 28 -214 79 -328 68 -156 186 -306 297 -380 l55 -36 -59 -44 c-89 -66 -164
-174 -187 -270 -13 -55 -16 -243 -5 -297 16 -73 60 -164 104 -213 20 -22 37
-44 37 -48 0 -4 -9 -36 -21 -70 -44 -131 -34 -325 23 -446 61 -127 234 -262
358 -278 22 -3 43 -10 46 -15 3 -5 7 -34 9 -66 7 -108 60 -223 136 -301 151
-151 374 -203 581 -135 51 17 68 13 68 -15 0 -27 71 -129 123 -178 167 -156
427 -189 642 -81 68 35 190 151 206 196 l10 30 107 -1 c76 -1 124 4 166 17 59
17 141 52 161 68 6 5 27 21 47 37 75 57 155 177 172 258 5 21 15 34 29 39 57
17 147 68 194 109 64 56 102 112 138 201 24 60 28 85 30 187 3 141 -12 216
-61 305 -36 67 -37 73 -7 162 20 58 24 254 7 320 -18 70 -48 135 -89 191 -33
44 -35 51 -26 84 17 62 7 262 -17 328 -56 157 -198 288 -352 328 -48 12 -54
17 -71 57 -41 96 -114 178 -211 238 l-56 36 17 51 c28 80 44 183 44 277 1 99
-10 212 -24 249 -6 14 -10 27 -9 29 5 8 -15 73 -33 105 -22 40 -64 59 -111 50
-28 -6 -44 -23 -141 -153 -34 -47 -96 -117 -136 -156 -78 -74 -236 -200 -243
-193 -2 2 -7 20 -10 39 -32 202 -180 440 -414 664 -65 62 -87 75 -130 76 -90
1 -120 -69 -75 -174 42 -100 52 -160 48 -286 -2 -63 -6 -126 -10 -140 -31
-113 -63 -200 -105 -288 l-49 -103 -44 33 c-157 121 -276 362 -337 683 -27
144 -41 266 -54 491 -4 72 -17 99 -56 119 -32 17 -54 18 -87 5z"/>
</g>
</svg>
